# xmcd CD database file
#
# Track frame offsets:
#	150
#	71652
#	123839
#	209438
#
# Disc length: 3454 seconds
#
# Revision: 1
# Processed by: cddbd v1.5.2PL0 Copyright (c) Steve Scherf et al.
# Submitted via: CDex 1.70beta2
#
DISCID=360d7c04
DTITLE=Woody Shaw, 1944-1989 - Woody Shaw Live, Vol. 01 (Rel 2001)
DYEAR=1977
DGENRE=Jazz 1971-1980
TTITLE0=Love Dance - Joe Bonner, Joseph Bonner
TTITLE1=Light Valley - Larry Willis
TTITLE2=Why? - Victor Lewis
TTITLE3=Stepping Stone - Woody Shaw 
EXTD=YEAR: 1977
EXTT0=
EXTT1=
EXTT2=
EXTT3=
PLAYORDER=
